<?xml version="1.0" encoding="UTF-8" standalone="no"?>
<!-- Created with Inkscape (http://www.inkscape.org/) -->

<svg
   xmlns:dc="http://purl.org/dc/elements/1.1/"
   xmlns:cc="http://creativecommons.org/ns#"
   xmlns:rdf="http://www.w3.org/1999/02/22-rdf-syntax-ns#"
   xmlns:svg="http://www.w3.org/2000/svg"
   xmlns="http://www.w3.org/2000/svg"
   xmlns:sodipodi="http://sodipodi.sourceforge.net/DTD/sodipodi-0.dtd"
   xmlns:inkscape="http://www.inkscape.org/namespaces/inkscape"
   width="96px"
   height="96px"
   viewBox="0 0 96 96"
   version="1.1"
   id="SVGRoot"
   inkscape:version="0.92.2 (5c3e80d, 2017-08-06)"
   sodipodi:docname="netshare.svg">
  <sodipodi:namedview
     id="base"
     pagecolor="#ffffff"
     bordercolor="#666666"
     borderopacity="1.0"
     inkscape:pageopacity="0.0"
     inkscape:pageshadow="2"
     inkscape:zoom="3.7712362"
     inkscape:cx="117.50249"
     inkscape:cy="33.779587"
     inkscape:document-units="px"
     inkscape:current-layer="layer1"
     showgrid="false"
     inkscape:window-width="1280"
     inkscape:window-height="897"
     inkscape:window-x="-8"
     inkscape:window-y="-8"
     inkscape:window-maximized="1"
     inkscape:grid-bbox="true" />
  <defs
     id="defs52" />
  <metadata
     id="metadata55">
    <rdf:RDF>
      <cc:Work
         rdf:about="">
        <dc:format>image/svg+xml</dc:format>
        <dc:type
           rdf:resource="http://purl.org/dc/dcmitype/StillImage" />
        <dc:title></dc:title>
      </cc:Work>
    </rdf:RDF>
  </metadata>
  <g
     id="layer1"
     inkscape:groupmode="layer"
     inkscape:label="Layer 1">
    <path
       inkscape:connector-curvature="0"
       d="m 49.058776,64.764609 c -0.161041,0.284294 -0.289885,0.611492 -0.492348,0.847504 -0.662601,0.767044 -1.54148,0.675856 -2.369732,-0.08047 -1.477065,-1.34098 -2.912709,-2.767788 -4.500191,-3.904937 C 36.30823,57.759309 30.413816,56.160856 24.105255,56.740158 17.594243,57.340921 11.893087,60.1999 6.9741533,65.204446 6.6934732,65.488728 6.366777,65.767669 6.0216683,65.901763 5.3038464,66.180679 4.5630158,65.783738 4.1948985,65.0328 3.8037872,64.228216 3.9188146,63.31097 4.5262053,62.661938 c 1.8589696,-1.973923 3.8927985,-3.668915 6.0922807,-5.079642 4.242518,-2.72487 8.77952,-4.296513 13.620221,-4.666618 0.147242,-0.01019 0.289887,-0.06438 0.432533,-0.09657 1.196369,0 2.388129,0 3.584499,0 0.80065,0.107289 1.605909,0.203834 2.406543,0.327198 6.672068,1.024514 12.52048,4.16241 17.531432,9.392249 0.345109,0.359389 0.579774,0.863599 0.865062,1.303431 0,0.305752 0,0.616857 0,0.922597 z"
       id="path4"
       style="stroke-width:0.04968069" />
    <path
       inkscape:connector-curvature="0"
       d="m 25.867609,93.19345 c -0.519968,-0.348658 -1.113543,-0.606128 -1.550685,-1.06742 -1.003112,-1.067419 -1.173361,-2.810708 -0.515359,-4.199961 0.639607,-1.351714 2.020028,-2.086569 3.290019,-1.754005 1.385032,0.364751 2.337517,1.678911 2.406542,3.325648 0.06449,1.544805 -0.754633,2.960882 -2.024623,3.486551 -0.170249,0.06975 -0.340499,0.139459 -0.510762,0.209187 -0.363507,0 -0.731624,0 -1.095132,0 z"
       id="path6"
       style="stroke-width:0.04968069" />
    <path
       inkscape:connector-curvature="0"
       d="m 27.179007,64.040483 c 4.707264,0.06438 9.46053,2.167027 13.514386,6.377719 0.312895,0.327198 0.575177,0.82068 0.681012,1.287336 0.18405,0.809949 -0.179456,1.560899 -0.791443,1.947112 -0.630399,0.396926 -1.302206,0.278915 -1.895794,-0.257471 -0.993907,-0.895772 -1.955599,-1.861287 -3.032332,-2.612225 -6.653656,-4.650538 -15.170891,-3.722576 -21.014707,2.226026 -0.124161,0.128729 -0.248467,0.257457 -0.38192,0.37547 -0.731625,0.627587 -1.679513,0.509574 -2.231682,-0.273565 -0.570581,-0.79922 -0.533772,-1.898828 0.12416,-2.61759 1.242387,-1.351712 2.622808,-2.483496 4.113674,-3.427552 3.179587,-2.01684 6.57544,-3.019896 10.914573,-3.02526 z"
       id="path8"
       style="stroke-width:0.04968069" />
    <path
       inkscape:connector-curvature="0"
       d="m 26.488803,75.310102 c 3.05995,0.05902 5.779386,1.244431 8.112309,3.609928 0.837458,0.847504 0.970898,2.022205 0.335903,2.853614 -0.653409,0.852855 -1.638108,0.847503 -2.475568,0 -3.119768,-3.170083 -7.569347,-3.534835 -10.965198,-0.890421 -0.372714,0.289659 -0.713212,0.627587 -1.062918,0.954784 -0.74544,0.708046 -1.730141,0.654399 -2.323729,-0.134092 -0.616584,-0.826043 -0.556765,-1.9793 0.179455,-2.735602 2.337532,-2.403039 5.07077,-3.593846 8.199746,-3.658211 z"
       id="path10"
       style="stroke-width:0.04968069" />
    <path
       style="fill:#000000;stroke:none;stroke-width:0.00409238"
       inkscape:connector-curvature="0"
       id="path2"
       d="m 79.394493,7.5329013 c -2.471686,3.2634557 -4.494631,5.9579157 -4.494631,5.9814297 0,0.06578 3.248101,4.34969 3.297969,4.34969 0.0356,0 0.797774,-1.048617 0.797774,-1.100349 0,-0.01878 -0.17451,-0.427915 -0.391767,-0.907563 -0.213699,-0.484347 -0.391768,-0.888747 -0.391768,-0.902849 0,-0.01878 1.057782,-1.424827 2.350605,-3.131788 L 82.91328,8.7178985 82.350563,7.9749313 81.791391,7.2319524 83.390515,5.1346913 84.989639,3.0421325 84.441161,2.3179668 83.892698,1.5938023 Z" />
    <path
       style="fill:#000000;stroke:none;stroke-width:0.00409238"
       inkscape:connector-curvature="0"
       id="path4-3"
       d="M 55.71398,2.6941513 C 55.389881,2.830531 55.087155,3.1973137 54.926886,3.6534458 l -0.09615,0.2680324 v 8.2996938 8.299691 l 0.09615,0.268046 c 0.124597,0.357382 0.381087,0.710063 0.630384,0.869933 l 0.199444,0.131667 h 5.677053 5.680628 l 0.527103,-1.011014 0.527104,-1.011013 v -2.60041 -2.595709 h -0.391768 -0.391767 v 2.586309 2.586308 h -0.391768 -0.391767 v -2.586308 -2.586309 h -0.391768 -0.391767 v 2.586309 2.586308 H 65.42623 65.034462 v -2.586308 -2.586309 h -0.391767 -0.391768 v 2.586309 2.586308 H 63.85916 63.467392 v -2.586308 -2.586309 h -0.391767 -0.391768 v 2.586309 2.586308 H 62.29209 61.900336 v -2.586308 -2.586309 h -0.391767 -0.391766 v 2.586309 2.586308 H 60.725035 60.333268 V 17.158672 14.572363 H 59.9415 59.549732 v 2.586309 2.586308 H 58.167852 56.786 L 56.600797,19.49575 56.415593,19.24653 V 17.412603 15.578675 L 56.611477,15.45171 56.80736,15.324744 56.800124,13.90463 56.78989,12.479803 56.604686,12.348137 56.415938,12.21647 V 10.76344 9.31511 l 0.199443,-0.2398304 0.199443,-0.2398165 h 1.453109 1.456654 l 0.0178,-0.1551815 c 0.01023,-0.079959 0.02845,-0.3714836 0.0391,-0.6442169 0.01023,-0.2727471 0.02859,-0.6677451 0.0391,-0.8793471 l 0.02145,-0.3902979 0.737226,-0.00892 0.733681,-0.014054 0.09615,-0.9639822 c 0.0499,-0.5313673 0.09615,-0.9921981 0.09615,-1.0251145 0.0029,-0.042408 0.498609,-0.056462 2.354149,-0.056462 h 2.350605 l 0.0146,0.1034653 c 0.01023,0.061186 0.0534,0.4796478 0.09264,0.931078 0.0391,0.4514175 0.08185,0.8699331 0.09264,0.9263654 0.0146,0.1081898 0.0178,0.1081898 0.740786,0.1081898 h 0.726547 l 0.02144,0.2915486 c 0.01023,0.1645839 0.02845,0.5078636 0.0391,0.7664965 0.01023,0.2586181 0.02859,0.5924976 0.0391,0.7382661 l 0.02145,0.2727333 h 1.467349 1.470907 l 0.199445,0.2774483 0.203003,0.2821335 v 1.4107262 1.4154 l -0.195884,0.126966 -0.192309,0.126966 -0.01023,0.884047 c -0.0072,0.484347 -0.0029,0.884047 0.0072,0.884047 0.01023,0 0.142398,-0.253933 0.295622,-0.559583 l 0.27779,-0.559581 0.694494,-0.714764 0.690932,-0.719464 V 7.8955674 c 0,-3.6866691 -0.0029,-3.808935 -0.07119,-4.1098849 C 72.742805,3.3953843 72.465056,2.9768828 72.16589,2.784071 l -0.203004,-0.1316667 -8.049032,-0.00888 c -6.54963,-0.00515 -8.077511,0.00515 -8.198607,0.051727 z" />
    <path
       style="fill:#000000;stroke:none;stroke-width:0.00409238"
       inkscape:connector-curvature="0"
       id="path6-7"
       d="m 84.124196,5.6143392 -1.371201,1.8104116 0.274246,0.3620823 0.277791,0.3620823 0.128246,-0.1598827 c 0.07119,-0.089406 0.690947,-0.9216631 1.37832,-1.8480284 L 86.058128,4.4575452 85.812376,4.1283793 C 85.68063,3.9496942 85.552384,3.8039137 85.531011,3.8039137 c -0.0178,0 -0.651746,0.8135141 -1.406786,1.8104255 z" />
    <path
       style="fill:#000000;stroke:none;stroke-width:0.00409238"
       inkscape:connector-curvature="0"
       id="path8-6"
       d="M 85.253191,7.0861712 83.874884,8.9059968 84.149116,9.2680791 84.426922,9.6301624 85.805227,7.7821202 87.183533,5.9340897 86.927102,5.600224 C 86.784704,5.4121385 86.659991,5.2616572 86.652855,5.2616572 c -0.01023,0 -0.63749,0.8182148 -1.399664,1.824514 z" />
    <path
       style="fill:#000000;stroke:none;stroke-width:0.00409238"
       inkscape:connector-curvature="0"
       id="path10-4"
       d="m 86.385758,8.5533157 -1.389,1.8339273 0.267111,0.352682 0.267113,0.352682 1.371186,-1.8104127 c 0.75504,-0.9969117 1.374745,-1.8292396 1.381866,-1.8480422 0.0029,-0.018777 -0.110441,-0.1880993 -0.252872,-0.3761848 L 87.774745,6.7193877 Z" />
    <path
       style="fill:#000000;stroke:none;stroke-width:0.00409238"
       inkscape:connector-curvature="0"
       id="path12"
       d="m 87.482699,10.006345 -1.399666,1.819839 0.277791,0.36207 0.274233,0.362083 1.388999,-1.833928 L 89.413041,8.8824813 89.14593,8.5345142 88.878804,8.1865323 Z" />
    <path
       style="fill:#000000;stroke:none;stroke-width:0.00409238"
       inkscape:connector-curvature="0"
       id="path14"
       d="m 81.314156,12.287004 -2.154721,2.84494 0.423821,0.921666 0.423822,0.921677 -1.941023,2.562792 -1.937463,2.558093 0.829828,1.090947 0.826269,1.095648 1.937463,-2.55808 c 1.869796,-2.464055 1.937463,-2.553404 2.019386,-2.49227 0.04625,0.03283 0.334779,0.25393 0.637504,0.489048 0.30274,0.235115 0.584091,0.45613 0.62684,0.484347 0.06404,0.047 0.267111,-0.2069 2.215253,-2.779108 L 87.365163,14.595878 85.41346,12.01897 83.465317,9.4467643 Z" />
    <path
       style="fill:#000000;stroke:none;stroke-width:0.00409238"
       inkscape:connector-curvature="0"
       id="path16"
       d="m 88.593893,11.46879 -1.389,1.83394 0.267126,0.35267 c 0.146016,0.192798 0.27423,0.347979 0.284911,0.343267 0.01023,-0.0089 0.63396,-0.832317 1.389,-1.83863 L 90.513543,10.340225 90.250005,9.9875446 89.982879,9.6348625 Z" />
    <path
       style="fill:#000000;stroke:none;stroke-width:0.00409238"
       inkscape:connector-curvature="0"
       id="path18"
       d="m 89.705088,12.964151 -1.378322,1.819814 0.277807,0.366795 0.281365,0.366782 1.378306,-1.843328 1.378306,-1.84803 -0.259992,-0.343292 c -0.142397,-0.188085 -0.267111,-0.343268 -0.277805,-0.343268 -0.01023,0 -0.637505,0.818214 -1.399665,1.824527 z" />
    <path
       style="fill:#000000;stroke:none;stroke-width:0.00409238"
       inkscape:connector-curvature="0"
       id="path20"
       d="m 90.631078,14.699327 -1.592003,2.106663 -0.569838,-0.75238 -0.569851,-0.752383 -2.36127,3.117688 c -1.296398,1.711662 -2.375539,3.10356 -2.396913,3.094147 -0.0178,-0.0089 -0.331219,-0.25392 -0.690933,-0.545468 l -0.651745,-0.526665 -0.423835,0.559581 -0.420248,0.554882 1.666792,2.20071 1.663218,2.196023 4.516005,-5.962628 4.512445,-5.957902 -0.544917,-0.719463 -0.541344,-0.714765 z" />
    <path
       style="fill:#000000;stroke:none;stroke-width:0.00409238"
       inkscape:connector-curvature="0"
       id="path22"
       d="m 72.980212,13.60838 -0.612585,0.630104 -1.552816,3.084771 -1.552829,3.089458 1.759394,2.322975 1.759379,2.327676 -0.427366,0.536068 -0.427397,0.536078 -1.656097,-2.186608 c -0.911752,-1.199099 -1.666792,-2.181897 -1.681032,-2.181897 -0.0321,0 -0.883256,1.669332 -0.883256,1.725765 0,0.01878 0.694492,0.959281 1.545695,2.083158 l 1.549255,2.045529 -0.406007,0.564283 -0.406022,0.564294 -1.478027,-1.951492 c -0.81203,-1.072133 -1.485147,-1.937378 -1.492268,-1.927976 -0.0072,0.01405 -0.206577,0.404399 -0.445196,0.874646 l -0.427381,0.85113 1.349813,1.78221 c 0.740801,0.978083 1.349811,1.800997 1.349811,1.829213 0,0.02822 -0.18519,0.29155 -0.409567,0.587797 l -0.409581,0.540781 -1.278585,-1.688159 -1.278583,-1.688147 -0.245738,0.489048 c -0.135393,0.268033 -0.334778,0.667733 -0.438076,0.879334 l -0.188764,0.395011 1.164624,1.537666 1.161062,1.532978 -0.427381,0.564295 -0.427383,0.56427 -1.086275,-1.434215 c -0.59477,-0.785298 -1.08982,-1.420114 -1.096939,-1.410712 -0.0499,0.07523 -0.815588,1.617612 -0.833403,1.678745 -0.0146,0.047 0.274245,0.456132 0.947364,1.349592 l 0.968739,1.279034 -0.544903,0.705363 c -0.62684,0.808799 -0.968739,1.184997 -1.595562,1.735176 -0.98298,0.865233 -1.994453,1.4013 -3.116326,1.65053 -0.48437,0.10819 -1.538592,0.10819 -2.030066,0 -1.616937,-0.357381 -3.066471,-1.391909 -4.277388,-3.042439 -1.442413,-1.974996 -2.33635,-4.542489 -2.578543,-7.401544 -0.04625,-0.540766 -0.04625,-2.078445 0,-2.656842 0.217259,-2.722675 1.072022,-5.341888 2.517995,-7.697792 l 0.295605,-0.484336 v -1.932677 -1.927977 l -0.09965,0.09875 c -0.292045,0.30565 -1.157488,1.405999 -1.599109,2.031414 -2.411153,3.432739 -3.707551,6.841962 -4.127798,10.853096 -0.07835,0.738268 -0.08901,2.788508 -0.02145,3.526788 0.33478,3.569093 1.438855,6.63975 3.301529,9.164925 1.506522,2.045542 3.358517,3.475057 5.352968,4.138102 3.817939,1.274345 7.685745,-0.343282 10.859058,-4.533088 l 0.466554,-0.620727 0.954486,1.260244 c 0.527104,0.695949 0.968739,1.264944 0.982978,1.264944 0.01023,0 0.32054,-0.258645 0.687374,-0.573695 l 0.662438,-0.573684 -1.068446,-1.410726 c -0.59121,-0.780597 -1.07202,-1.438929 -1.07202,-1.462444 0,-0.05646 0.755041,-1.058019 0.797775,-1.058019 0.01459,0 0.548476,0.686535 1.185982,1.523564 l 1.157502,1.528265 0.655304,-0.573684 c 0.359728,-0.315064 0.655334,-0.587797 0.655334,-0.606612 0,-0.01405 -0.569837,-0.766483 -1.264344,-1.664632 -0.694493,-0.898161 -1.264344,-1.659943 -1.264344,-1.688159 0,-0.0235 0.185204,-0.291549 0.409581,-0.587799 l 0.409582,-0.540766 1.367611,1.805711 1.364067,1.80101 0.669558,-0.578396 0.669574,-0.578384 -1.488722,-1.946792 -1.485148,-1.951479 0.420261,-0.554881 0.423822,-0.559595 1.563495,2.064356 1.56351,2.064343 0.64464,-0.564294 c 0.356152,-0.315053 0.651758,-0.578385 0.662438,-0.587785 0.0072,-0.0089 -0.737228,-1.011026 -1.656111,-2.22424 l -1.673897,-2.21011 0.427381,-0.564296 0.427367,-0.564269 1.745154,2.304159 c 0.961603,1.264933 1.755833,2.304162 1.770073,2.304162 0.01023,0 1.068446,-0.916964 2.35059,-2.040828 l 2.325686,-2.040841 0.470114,-0.813501 0.470115,-0.818214 -2.079933,-2.750892 -2.083478,-2.750891 -1.602684,2.116076 -1.602684,2.116062 -1.388985,-1.833928 -1.389,-1.833927 1.584882,-2.09256 c 0.872564,-1.15208 1.584871,-2.116062 1.584871,-2.139578 0,-0.05172 -4.06369,-5.431249 -4.099304,-5.431249 -0.01023,0 -0.295606,0.286847 -0.633946,0.634829 z" />
    <g
       id="g12"
       transform="matrix(0,0.01949308,0.03307234,0,44.361028,46.239428)">
      <path
         d="M 10,610.8 H 758.4 V 770.4 H 10 Z"
         id="path4-5"
         inkscape:connector-curvature="0" />
      <path
         d="m 695.3,480.2 v 162.1 161 97.8 l 289,-210.5 z"
         id="path6-6"
         inkscape:connector-curvature="0" />
      <path
         d="M 235.9,229.5 H 990 V 389.1 H 235.9 Z"
         id="path8-7"
         inkscape:connector-curvature="0" />
      <path
         d="M 299,98.9 V 261 422 519.8 L 10,309.4 Z"
         id="path10-1"
         inkscape:connector-curvature="0" />
    </g>
  </g>
</svg>
